<?xml version="1.0" standalone="no"?>
<!DOCTYPE svg PUBLIC "-//W3C//DTD SVG 20010904//EN"
 "http://www.w3.org/TR/2001/REC-SVG-20010904/DTD/svg10.dtd">
<svg version="1.0" xmlns="http://www.w3.org/2000/svg"
 width="800.000000pt" height="800.000000pt" viewBox="0 0 800.000000 800.000000"
 preserveAspectRatio="xMidYMid meet">
<metadata>
Created by potrace 1.14, written by Peter Selinger 2001-2017
</metadata>
<g transform="translate(0.000000,800.000000) scale(0.100000,-0.100000)"
fill="#000000" stroke="none">
<path d="M3234 7115 c-3 -8 -13 -15 -22 -15 -8 0 -12 -3 -9 -6 3 -4 1 -16 -5
-28 -16 -29 -11 -246 6 -274 4 -7 6 -16 3 -19 -3 -2 1 -22 8 -43 10 -29 11
-41 2 -50 -9 -10 -9 -11 1 -6 6 4 12 2 12 -3 0 -6 -6 -11 -12 -12 -7 0 -5 -3
4 -7 12 -5 15 -11 9 -21 -7 -11 -13 -7 -28 17 -11 18 -23 30 -26 27 -4 -3 -5
-2 -2 2 3 3 0 12 -6 20 -6 7 -8 13 -3 13 5 0 -2 7 -14 16 -12 8 -22 20 -22 25
0 34 -76 57 -98 30 -10 -12 -12 -13 -6 -1 7 13 5 13 -9 1 -9 -7 -17 -10 -17
-7 0 10 -34 -26 -53 -56 -28 -44 -21 -65 43 -128 33 -33 60 -64 60 -69 0 -8
-21 -8 -40 -1 -3 1 -8 2 -12 1 -5 0 -8 6 -8 14 0 9 -9 15 -24 15 -14 0 -28 5
-31 10 -3 6 -15 10 -26 10 -11 0 -18 4 -15 9 3 5 -13 12 -37 16 -23 4 -49 10
-57 12 -8 2 -25 5 -37 6 -13 1 -23 6 -23 11 0 5 -6 3 -14 -3 -11 -9 -15 -8
-20 5 -5 12 -10 14 -17 7 -6 -6 -29 -8 -51 -6 -28 4 -38 2 -34 -6 4 -6 1 -11
-8 -11 -13 0 -27 -36 -31 -84 -2 -24 71 -97 91 -89 8 3 14 -1 14 -8 0 -7 3
-10 6 -6 8 7 86 -31 96 -47 5 -8 8 -7 8 2 0 10 4 9 16 -3 9 -9 23 -14 30 -11
8 3 18 -4 24 -14 6 -11 17 -20 25 -20 8 0 15 -5 15 -11 0 -5 4 -8 9 -4 5 3 16
-2 24 -10 9 -8 20 -15 25 -15 6 0 24 -13 42 -30 18 -16 36 -30 40 -30 14 0
179 -167 173 -174 -4 -3 1 -6 11 -6 9 0 14 -5 11 -10 -3 -6 1 -13 10 -16 9 -4
14 -13 11 -21 -3 -8 -1 -11 4 -8 6 3 13 -2 17 -12 4 -10 15 -25 25 -34 10 -9
18 -21 18 -26 0 -6 7 -16 15 -23 8 -7 13 -16 10 -20 -3 -4 2 -13 10 -20 29
-24 61 -111 36 -95 -5 3 -12 1 -16 -5 -4 -6 -11 -7 -17 -4 -7 4 -8 2 -4 -4 6
-11 -6 -16 -26 -13 -5 0 -8 -4 -8 -9 0 -6 -7 -10 -15 -10 -19 0 -69 -49 -73
-72 -2 -10 2 -27 8 -38 8 -14 8 -20 0 -20 -6 0 -8 -5 -4 -12 4 -7 9 -24 11
-38 2 -20 -5 -30 -30 -45 -18 -11 -35 -19 -39 -17 -5 1 -8 -2 -8 -8 0 -5 -6
-10 -14 -10 -8 0 -17 -7 -20 -16 -3 -8 -10 -13 -15 -9 -6 3 -14 -2 -19 -11 -5
-9 -13 -16 -18 -16 -5 1 -24 -13 -41 -29 -18 -16 -33 -27 -33 -24 0 3 -9 -4
-20 -15 -11 -11 -20 -25 -20 -31 0 -5 -4 -8 -8 -5 -5 3 -23 -10 -39 -29 -17
-19 -34 -31 -38 -27 -5 4 -5 2 -2 -4 8 -14 -16 -37 -27 -27 -4 4 -4 -1 0 -11
5 -14 4 -17 -4 -12 -7 4 -12 3 -12 -2 0 -5 -9 -20 -20 -33 -12 -12 -30 -38
-41 -56 -11 -18 -25 -33 -30 -33 -6 0 -7 -4 -4 -10 3 -5 1 -10 -4 -10 -6 0
-11 -5 -11 -11 0 -6 -7 -17 -15 -26 -8 -8 -13 -19 -10 -24 4 -5 1 -9 -4 -9 -6
0 -11 -9 -11 -19 0 -10 -7 -21 -15 -25 -8 -3 -15 -15 -15 -26 0 -11 -5 -20
-11 -20 -5 0 -7 -4 -4 -10 3 -5 1 -10 -6 -10 -7 0 -10 -3 -6 -6 3 -3 -7 -34
-23 -69 -16 -35 -26 -66 -23 -69 4 -3 1 -6 -6 -6 -7 0 -11 -6 -8 -14 3 -7 1
-18 -3 -22 -5 -5 -11 -18 -13 -29 -2 -11 -7 -27 -10 -35 -4 -8 -9 -26 -11 -40
-3 -14 -5 -25 -6 -25 -1 0 -4 -13 -6 -29 -2 -16 -7 -32 -11 -35 -5 -3 -8 -18
-8 -33 1 -16 -2 -28 -6 -28 -5 0 -6 -9 -4 -20 2 -11 0 -22 -4 -24 -4 -3 -8
-22 -9 -42 -2 -21 -8 -41 -14 -45 -7 -4 -7 -9 1 -14 8 -5 9 -11 2 -19 -6 -7
-11 -40 -12 -74 -1 -35 -6 -65 -11 -68 -4 -3 -5 -10 -2 -16 10 -16 14 -58 5
-58 -4 0 -7 -19 -6 -42 0 -24 -4 -46 -10 -50 -6 -5 -6 -8 0 -8 6 0 10 -47 9
-121 0 -66 3 -122 8 -125 4 -3 3 -15 -2 -28 -5 -15 -5 -27 3 -35 8 -8 7 -11
-4 -11 -10 0 -10 -3 -2 -8 6 -4 13 -43 16 -87 3 -44 6 -80 7 -80 1 0 3 -11 5
-25 5 -39 14 -92 21 -125 4 -16 7 -42 8 -57 0 -16 4 -28 8 -28 4 0 7 -8 7 -17
0 -25 6 -59 25 -133 9 -36 17 -77 18 -92 1 -16 6 -28 11 -28 4 0 5 -4 2 -10
-3 -6 -2 -10 4 -10 6 0 8 -7 5 -15 -4 -8 -2 -15 3 -15 8 0 12 -15 15 -57 1 -7
5 -13 8 -13 4 0 10 -18 14 -40 3 -22 10 -40 15 -40 5 0 8 -11 7 -25 -2 -13 0
-22 4 -20 4 2 13 -15 20 -38 8 -23 17 -46 20 -52 4 -5 13 -27 19 -47 7 -21 17
-38 22 -38 5 0 9 -8 9 -18 0 -10 8 -29 17 -42 10 -14 18 -29 20 -35 5 -26 52
-103 58 -97 5 4 6 -1 2 -10 -3 -9 0 -19 9 -22 8 -3 14 -12 14 -21 0 -8 5 -15
11 -15 5 0 7 -4 4 -10 -3 -6 -1 -10 4 -10 6 0 11 -7 11 -15 0 -9 7 -18 15 -21
8 -4 12 -10 9 -15 -3 -5 1 -12 9 -15 9 -3 20 -18 27 -34 7 -16 18 -31 27 -34
8 -3 11 -10 8 -16 -3 -5 -1 -10 5 -10 6 0 8 -5 5 -10 -4 -6 -2 -9 3 -8 13 4
112 -104 105 -116 -3 -5 -1 -6 5 -2 6 3 22 -5 36 -19 14 -14 30 -25 36 -25 5
0 10 -4 10 -9 0 -11 109 -77 122 -73 5 1 7 -2 4 -7 -6 -9 21 -20 58 -25 10 -2
23 -10 28 -20 5 -9 14 -13 20 -10 6 4 14 0 19 -7 7 -12 9 -12 9 0 0 10 4 11
13 3 6 -5 27 -12 45 -15 19 -3 36 -8 40 -11 3 -3 11 -1 19 5 7 7 13 7 13 2 0
-12 39 -11 59 1 9 6 12 5 8 -1 -5 -7 10 -10 43 -8 28 2 53 -2 56 -7 4 -6 9 -6
13 -2 3 5 61 8 127 6 121 -3 122 -3 127 -28 2 -13 1 -27 -4 -30 -5 -2 -4 -16
1 -29 5 -14 5 -27 1 -30 -7 -4 -8 -40 -1 -40 4 0 8 -69 13 -202 6 -135 4 -141
-33 -118 -37 24 -64 35 -86 35 -13 0 -24 4 -24 8 0 6 -48 11 -125 13 -5 0 -28
-3 -50 -6 -22 -3 -48 -7 -57 -8 -10 0 -18 -6 -18 -11 0 -5 -3 -6 -7 -3 -3 4
-17 0 -30 -8 -13 -9 -23 -12 -23 -8 0 5 -5 0 -11 -10 -6 -9 -14 -15 -20 -12
-5 4 -12 -1 -15 -9 -3 -9 -10 -14 -14 -11 -5 3 -18 -7 -29 -21 -12 -15 -21
-24 -21 -20 0 4 -6 1 -14 -6 -8 -7 -13 -15 -11 -16 2 -2 -4 -12 -13 -22 -38
-42 -48 -56 -70 -104 -12 -27 -25 -65 -28 -85 -3 -20 -11 -39 -18 -43 -6 -5
-7 -8 -1 -8 12 0 13 -40 2 -57 -4 -7 -2 -15 4 -18 5 -4 8 -13 5 -21 -3 -8 -1
-14 5 -14 6 0 7 -5 4 -10 -4 -6 -1 -17 5 -25 7 -8 10 -22 6 -30 -3 -8 -1 -15
4 -15 5 0 20 -18 32 -40 13 -22 28 -40 33 -40 6 0 16 -9 23 -20 7 -11 20 -20
29 -20 9 0 13 -3 10 -7 -4 -3 -2 -12 4 -20 6 -7 7 -13 2 -13 -5 0 -10 -8 -11
-17 -3 -30 -7 -47 -13 -58 -4 -5 -5 -20 -4 -32 1 -13 -1 -23 -4 -23 -3 0 -17
-36 -30 -80 -14 -44 -28 -80 -33 -80 -4 0 -5 -7 -2 -15 4 -8 1 -15 -6 -15 -6
0 -9 -4 -5 -9 3 -5 1 -12 -5 -16 -5 -3 -10 -15 -10 -26 0 -11 -6 -22 -14 -25
-8 -3 -12 -12 -9 -20 3 -8 0 -14 -5 -14 -6 0 -16 -16 -23 -35 -7 -19 -17 -35
-23 -35 -5 0 -7 -3 -3 -6 3 -4 -1 -14 -10 -23 -15 -15 47 -16 828 -19 464 -1
850 0 857 3 10 4 9 10 -3 28 -8 13 -12 26 -9 30 4 3 3 14 -1 24 -7 16 -11 31
-19 68 -1 6 -5 16 -9 22 -5 7 -5 17 -2 23 3 6 1 10 -6 10 -7 0 -9 3 -6 7 4 3
1 13 -6 21 -8 11 -8 14 0 9 7 -5 5 5 -4 24 -36 73 -12 167 59 229 33 28 48 34
82 34 22 -1 50 -4 61 -7 11 -3 23 -6 28 -6 4 -1 7 -8 7 -16 0 -8 5 -15 11 -15
5 0 7 -4 4 -10 -3 -5 -2 -10 4 -10 8 0 22 -30 24 -50 1 -3 9 -14 19 -24 10
-11 18 -25 18 -31 0 -17 24 -65 33 -65 5 0 5 -5 2 -10 -4 -6 -2 -16 4 -23 13
-17 31 -97 38 -172 3 -33 6 -67 8 -75 2 -13 32 -15 198 -18 109 -1 197 1 197
6 0 4 -6 14 -12 21 -10 11 -10 12 -1 7 18 -10 7 88 -23 214 -4 14 -7 32 -8 40
0 8 -4 18 -8 21 -5 3 -9 17 -10 32 -1 15 -6 27 -10 27 -4 0 -8 8 -8 18 0 10
-4 22 -9 28 -5 5 -11 18 -13 29 -1 11 -9 26 -16 33 -7 8 -10 18 -7 23 4 5 1 9
-4 9 -6 0 -11 9 -11 20 0 11 -5 20 -11 20 -5 0 -8 4 -4 9 3 6 -2 14 -11 19 -9
5 -15 12 -15 15 3 20 0 28 -8 22 -6 -3 -8 4 -6 15 2 11 0 20 -4 20 -11 0 -41
46 -46 70 -2 10 3 24 11 30 7 7 11 16 8 21 -3 5 0 9 6 9 6 0 9 4 5 9 -3 6 1
16 8 23 8 7 12 20 9 30 -2 10 0 18 6 18 6 0 9 11 7 25 -1 14 2 25 7 25 5 0 6
5 3 10 -3 6 -1 10 6 10 8 0 8 4 -1 15 -7 8 -9 15 -4 15 12 0 12 111 0 129 -6
10 -6 12 2 7 9 -5 11 3 10 28 -2 20 -7 36 -12 36 -4 0 -6 7 -2 15 3 8 1 15 -3
15 -5 0 -7 9 -4 20 3 12 0 20 -6 20 -7 0 -10 4 -6 9 3 5 -2 16 -10 24 -8 9
-15 21 -15 27 0 18 -89 101 -125 116 -19 7 -37 18 -40 24 -4 6 -11 8 -16 5 -5
-4 -9 -2 -9 3 0 5 -6 9 -12 10 -7 0 -38 3 -68 6 -36 3 -57 0 -62 -7 -6 -9 -8
-9 -8 0 0 7 -9 10 -22 6 -13 -2 -31 -5 -40 -5 -10 1 -18 -4 -18 -9 0 -6 -4 -8
-9 -4 -5 3 -16 -1 -24 -9 -8 -8 -17 -12 -21 -9 -3 4 -6 1 -6 -5 0 -7 -7 -12
-15 -12 -8 0 -24 -9 -35 -20 -23 -23 -34 -26 -25 -7 4 6 1 5 -7 -3 -28 -33
-59 -47 -94 -43 -24 2 -33 0 -29 -7 4 -7 -1 -7 -13 1 -17 11 -24 10 -38 -2
-10 -8 -15 -9 -11 -3 4 7 -13 11 -49 12 -35 0 -54 -3 -54 -11 0 -9 -2 -9 -8 0
-5 7 -24 11 -46 10 -32 -3 -39 0 -52 25 -13 26 -13 28 3 29 15 0 15 2 3 7 -10
5 -15 21 -15 52 1 25 -1 50 -4 55 -10 19 -9 35 2 35 8 0 7 3 -1 9 -8 5 -15 31
-17 62 -2 30 -4 54 -5 54 -5 0 -9 195 -5 222 5 25 13 34 39 43 19 6 37 17 40
25 3 8 10 15 16 15 6 0 17 6 25 13 7 6 27 23 45 37 18 14 47 40 66 58 19 17
39 32 45 32 5 0 7 5 4 11 -4 6 2 13 14 16 11 3 18 9 15 14 -3 5 2 12 10 15 9
3 13 10 10 15 -3 5 2 9 11 9 9 0 13 5 10 10 -3 6 1 13 9 16 9 3 16 10 16 15 0
15 42 59 51 53 5 -3 6 1 3 9 -3 8 1 21 8 28 8 8 22 31 31 51 10 20 22 40 27
43 6 4 8 11 5 16 -4 5 -1 9 5 9 6 0 8 5 5 10 -3 6 -2 10 4 10 6 0 13 11 17 25
3 14 10 22 15 19 5 -3 6 2 3 11 -4 9 2 25 12 37 11 12 13 18 5 13 -9 -5 -8 0
3 17 9 14 13 28 9 31 -3 4 -1 7 5 7 7 0 11 3 11 8 -1 4 0 10 1 15 4 11 6 19
14 52 4 17 12 38 17 49 8 14 8 16 -3 10 -10 -6 -11 -5 -1 8 7 8 10 18 6 21 -3
4 -2 7 4 7 6 0 8 12 5 26 -3 15 -1 24 4 21 5 -3 10 6 10 19 1 15 -2 21 -10 17
-7 -4 -6 -1 2 9 6 8 13 40 15 71 1 32 4 57 7 57 3 0 5 22 6 50 1 33 -3 47 -10
43 -8 -5 -7 -2 0 8 12 15 12 117 1 137 -4 6 -3 13 3 17 6 4 7 11 4 17 -7 11
-16 189 -18 356 0 45 -5 82 -10 82 -4 0 -3 6 3 14 9 10 9 16 1 21 -8 5 -8 10
0 20 8 10 8 15 0 20 -8 5 -8 10 0 20 8 10 8 15 -1 20 -8 6 -7 10 2 16 8 5 9 9
3 9 -6 0 -10 16 -10 38 1 20 -2 45 -6 54 -5 10 -4 20 3 24 8 4 7 9 -2 15 -11
7 -11 9 -1 9 9 0 10 5 4 18 -5 9 -8 43 -7 75 1 32 -2 60 -5 62 -4 2 -6 14 -5
27 1 13 -3 26 -9 30 -8 6 -8 8 0 8 7 0 9 14 6 38 -2 20 -5 53 -6 74 0 20 -4
34 -7 32 -4 -2 -7 6 -7 19 0 27 -10 102 -18 137 -3 14 -6 33 -6 43 1 9 -2 17
-6 17 -4 0 -8 17 -10 38 -2 20 -4 48 -5 62 -1 14 -5 27 -9 30 -3 3 -8 14 -10
25 -1 11 -7 23 -13 27 -6 5 -4 8 5 8 13 0 13 1 0 10 -8 5 -15 17 -16 27 0 10
-4 27 -8 38 -4 11 -12 34 -18 50 -6 17 -17 44 -24 62 -8 17 -14 38 -14 47 0 9
-4 16 -10 16 -5 0 -10 6 -10 14 0 17 -32 80 -43 84 -4 2 -5 8 -1 13 3 5 0 9
-6 9 -6 0 -8 5 -5 10 3 6 1 10 -4 10 -6 0 -11 7 -11 15 0 8 -4 15 -10 15 -5 0
-10 7 -10 15 0 8 -9 24 -19 34 -11 11 -17 21 -15 24 2 2 -7 16 -21 31 -14 15
-25 29 -25 31 0 13 -134 155 -145 155 -4 0 -16 10 -26 22 -11 11 -19 18 -19
14 0 -4 -7 -1 -15 6 -33 30 -45 38 -45 32 0 -4 -8 0 -17 9 -10 8 -27 17 -38
19 -11 1 -23 8 -27 13 -4 6 -11 10 -15 11 -23 2 -93 28 -93 35 0 5 -7 5 -17 2
-10 -4 -14 -2 -10 4 4 6 1 11 -6 10 -49 -1 -87 4 -82 13 3 5 0 7 -8 4 -20 -7
-97 14 -97 27 0 6 -4 8 -9 4 -6 -3 -8 3 -6 13 4 25 -50 86 -70 78 -8 -3 -15
-2 -15 2 0 4 -28 7 -62 7 -34 0 -67 5 -73 12 -7 6 -10 30 -8 55 2 24 3 58 3
76 0 17 4 32 9 32 4 0 6 11 3 25 -3 17 0 25 9 25 11 0 11 2 -1 10 -8 5 -10 10
-4 10 5 0 11 10 11 23 3 39 8 62 15 68 5 3 12 27 18 55 19 92 21 99 33 106 7
4 8 8 4 8 -4 0 -3 9 3 21 6 11 13 30 16 42 2 11 10 25 18 29 9 5 13 15 10 22
-3 8 0 17 5 21 6 3 9 11 6 16 -4 5 -1 9 5 9 6 0 8 5 5 10 -3 6 -1 10 4 10 6 0
11 6 11 13 0 7 8 22 18 33 10 10 19 23 19 27 2 12 74 92 82 92 4 0 15 8 25 18
10 9 24 17 32 17 8 0 23 9 34 20 12 12 20 15 20 8 0 -7 5 -5 11 5 6 9 14 15
19 12 24 -15 32 143 9 171 -5 6 -6 13 -3 16 7 8 -46 64 -57 61 -5 -2 -9 1 -9
5 0 13 -44 12 -52 -1 -6 -9 -8 -8 -8 2 0 11 -3 11 -15 1 -8 -7 -15 -9 -15 -5
0 4 -6 2 -13 -4 -8 -6 -17 -8 -20 -4 -4 3 -7 1 -7 -5 0 -6 -9 -14 -21 -17 -20
-7 -146 -125 -133 -125 4 0 -4 -10 -17 -23 -13 -13 -25 -30 -27 -37 -2 -8 -8
-18 -14 -21 -5 -3 -9 -10 -9 -15 1 -5 -6 -17 -14 -27 -8 -9 -15 -21 -15 -26 0
-5 -6 -14 -14 -21 -8 -6 -13 -17 -10 -24 2 -6 -4 -21 -14 -32 -10 -11 -18 -27
-16 -36 1 -9 -5 -19 -13 -22 -8 -3 -12 -9 -10 -13 3 -5 -1 -13 -8 -20 -17 -16
-29 9 -12 26 6 6 8 11 4 11 -3 0 -2 11 3 25 6 16 6 26 -1 31 -8 4 -8 9 -1 13
6 3 13 22 15 41 3 19 6 36 7 38 4 4 7 21 9 43 1 13 5 18 14 13 9 -6 9 -5 0 8
-7 8 -9 18 -5 22 4 4 7 11 7 14 2 20 18 52 26 52 6 0 8 4 4 10 -3 5 4 26 15
47 11 21 20 42 19 48 -1 18 -48 110 -49 95 0 -11 -2 -12 -8 -2 -14 22 -96 35
-124 20 -10 -5 -18 -16 -18 -24 0 -8 -4 -13 -9 -10 -5 3 -12 -5 -15 -19 -4
-14 -11 -25 -17 -25 -6 0 -7 -4 -4 -10 3 -5 1 -10 -5 -10 -6 0 -9 -4 -6 -9 3
-5 -1 -14 -9 -21 -8 -7 -12 -16 -9 -21 3 -5 0 -9 -7 -9 -7 0 -9 -3 -6 -7 4 -3
2 -12 -3 -19 -10 -11 -21 -45 -22 -71 -1 -7 -4 -13 -8 -13 -5 0 -9 -22 -11
-72 0 -10 -6 -18 -12 -18 -8 0 -8 -3 -2 -8 12 -8 15 -53 3 -46 -4 3 -8 -2 -8
-11 0 -10 5 -13 13 -9 9 6 9 5 0 -8 -7 -8 -10 -18 -6 -21 3 -4 1 -7 -7 -7 -10
0 -10 -4 1 -17 13 -16 12 -17 -3 -5 -10 8 -15 22 -12 38 2 13 0 24 -6 24 -5 0
-10 5 -10 11 0 5 6 7 13 3 9 -6 9 -5 0 7 -6 8 -12 30 -14 49 -2 19 -7 41 -12
48 -6 8 -5 12 2 12 7 0 9 5 4 13 -10 15 -12 30 -17 94 -2 28 -6 55 -8 60 -3 4
-6 26 -7 48 -5 110 -13 141 -32 130 -5 -4 -9 -2 -9 4 0 5 -9 8 -20 6 -11 -2
-20 0 -20 4 0 5 -11 9 -25 9 -14 0 -25 -5 -25 -10 0 -5 -9 -4 -20 2 -16 9 -22
8 -26 -5z"/>
</g>
</svg>
